<svg width="44" height="42" viewBox="0 0 44 42" fill="none" xmlns="http://www.w3.org/2000/svg">
<rect width="44" height="42" fill="#D9D8D8"/>
<g id="Home">
<rect width="1440" height="4582.97" transform="translate(-307.348 -750)" fill="#F1F2F9"/>
<g id="Section">
<rect width="1440" height="360" transform="translate(-307.348 -87)" fill="#1362C7"/>
<g id="Frame 1707478975">
<g id="NEOM">
<g id="Group">
<g id="Group_2">
<g id="Clip path group">
<mask id="mask0_758_666" style="mask-type:luminance" maskUnits="userSpaceOnUse" x="0" y="0" width="18" height="24">
<g id="_clip11">
<path id="Vector" d="M9.12298 3.91833C7.2516 5.23262 5.32703 6.3786 5.07896 7.14162C4.3153 9.49195 6.83555 12.8975 5.92888 15.6892C5.06956 18.3339 -0.384731 19.5701 0.0215844 21.6114C0.440871 23.7191 3.35966 22.5446 5.91526 22.4477C8.09925 22.3653 10.8089 22.3841 14.3415 23.4001C15.0478 22.4045 15.85 20.9628 16.4953 18.9747C16.9733 17.5051 17.1313 15.8886 17.0959 14.2954C16.9688 10.6525 16.1594 8.08396 15.4116 6.04136C15.3915 5.99401 15.3714 5.94602 15.3523 5.90224C15.3539 5.9003 15.3549 5.8977 15.3565 5.89576C14.528 3.72053 12.8311 1.55373 14.0014 0.415527C13.1573 1.03197 11.0317 2.57811 9.12298 3.91833Z" fill="white"/>
</g>
</mask>
<g mask="url(#mask0_758_666)">
<g id="Group_3">
<path id="Vector_2" d="M24.8155 16.0578C24.8266 15.8325 24.8356 15.6068 24.8421 15.3814L24.7484 15.3746H24.7474C21.5984 15.2374 19.0512 12.7178 18.8787 9.5704C18.7416 9.59083 18.6031 9.60607 18.4643 9.61904C18.3767 9.62715 18.2908 9.63558 18.2026 9.64077C18.4089 13.1095 21.2141 15.8834 24.6858 16.051L24.8155 16.0578ZM17.0527 -8.96315C17.0784 -8.92002 17.1043 -8.87625 17.1289 -8.83247C17.175 -8.75173 17.2194 -8.66968 17.2625 -8.58699C17.2694 -8.5737 17.2762 -8.56008 17.2823 -8.54678C17.3028 -8.5082 17.3232 -8.46896 17.343 -8.42972C17.4633 -8.41902 17.5849 -8.41286 17.7087 -8.41383C19.8833 -8.42615 21.6425 -10.2058 21.6305 -12.3804L20.9515 -12.3761C20.9619 -10.5761 19.5055 -9.10291 17.7049 -9.09286C17.4338 -9.09124 17.1701 -9.12367 16.9172 -9.18431C16.9467 -9.13891 16.9743 -9.09189 17.0025 -9.04584C17.019 -9.0186 17.0359 -8.99104 17.0527 -8.96315ZM17.7126 -7.65114C17.6987 -7.65082 17.6841 -7.65146 17.6689 -7.65211C17.7473 -7.43096 17.8164 -7.20624 17.8741 -6.97665C20.7187 -7.07523 23.0035 -9.38601 23.0696 -12.2305C22.8845 -12.2759 22.7026 -12.3272 22.5223 -12.3859L22.3939 -12.3849C22.4084 -9.7894 20.3088 -7.66573 17.7126 -7.65114ZM-9.87951 24.1536V24.1527C-10.016 24.1731 -10.1545 24.1893 -10.2939 24.2023C-10.3805 24.2104 -10.4674 24.2185 -10.5553 24.223C-10.3481 27.6921 -7.54279 30.4656 -4.07209 30.6333C-4.06852 30.5558 -4.06204 30.4793 -4.0562 30.4018C-4.0442 30.2529 -4.02961 30.1041 -4.0095 29.9569H-4.01015C-7.15885 29.8197 -9.70667 27.3011 -9.87951 24.1536ZM2.79539 19.9582C2.82133 20.0013 2.84759 20.0448 2.87256 20.0892C2.91829 20.1696 2.96303 20.2517 3.00584 20.3344C3.01297 20.3473 3.01978 20.3603 3.02594 20.3736C3.04637 20.4128 3.0668 20.4524 3.08626 20.4916C3.20656 20.502 3.32817 20.5075 3.45237 20.5065C5.62695 20.4945 7.38646 18.7149 7.37413 16.5403C7.37349 16.4171 7.36635 16.2949 7.35468 16.1746C7.31739 16.1567 7.27977 16.1379 7.24313 16.1194C7.22562 16.111 7.20908 16.1029 7.19189 16.0938C7.11115 16.0539 7.03138 16.0111 6.95323 15.968C6.90458 15.9414 6.85659 15.9135 6.80892 15.8856C6.78752 15.873 6.76547 15.8607 6.74407 15.8477C6.69348 15.8182 6.64387 15.7893 6.59425 15.7585C6.65781 16.0098 6.69348 16.2731 6.6951 16.5442C6.70516 18.3449 5.24884 19.8181 3.44815 19.8285C3.17738 19.8301 2.91342 19.7977 2.66081 19.7361C2.69032 19.7815 2.71756 19.8285 2.74577 19.8752C2.76264 19.9021 2.7795 19.93 2.79539 19.9582ZM3.17057 24.8427C3.14917 24.6962 3.13328 24.5483 3.11966 24.3991C3.11317 24.3216 3.10604 24.2448 3.10118 24.1666C-0.367257 24.3729 -3.1411 27.1782 -3.30875 30.6498C-3.22119 30.6534 -3.13461 30.6605 -3.04803 30.6673C-2.90827 30.679 -2.76948 30.693 -2.63231 30.7114C-2.49514 27.5624 0.0234919 25.0152 3.17057 24.8427ZM8.81294 16.6902C8.58303 16.6344 8.35701 16.5686 8.13553 16.492C8.13553 16.5066 8.13715 16.5212 8.13715 16.5358C8.15207 19.1316 6.05207 21.2553 3.45626 21.2702C3.44166 21.2702 3.42707 21.2692 3.41216 21.2692C3.49063 21.4897 3.56002 21.7145 3.61774 21.944C6.46195 21.8455 8.74679 19.5357 8.81294 16.6902ZM17.5904 24.761C17.569 24.6148 17.5531 24.4666 17.5395 24.3171C17.533 24.2402 17.5252 24.1634 17.521 24.0852C14.0526 24.2915 11.2787 27.0968 11.1107 30.5681C11.1986 30.572 11.2852 30.5791 11.3715 30.5859C11.5115 30.5976 11.6497 30.6116 11.7875 30.63C11.9247 27.481 14.443 24.9335 17.5904 24.761ZM18.9598 23.9905V23.9899C18.8233 24.01 18.6848 24.0259 18.5454 24.0392C18.4588 24.0473 18.3719 24.0554 18.284 24.0599C18.4912 27.5287 21.2962 30.3022 24.7672 30.4705C24.7708 30.393 24.7773 30.3162 24.7831 30.2383C24.7951 30.0898 24.8097 29.9413 24.8298 29.7934H24.8292C21.6798 29.6563 19.1326 27.1379 18.9598 23.9905ZM18.2594 23.2969C21.7281 23.0897 24.5016 20.2847 24.6696 16.814C24.6002 16.8108 24.5318 16.805 24.4634 16.7998C24.3055 16.7881 24.1482 16.7732 23.9928 16.7518C23.8557 19.9011 21.3367 22.4483 18.19 22.6208C18.2107 22.7661 18.2273 22.9133 18.2402 23.0615C18.2474 23.1393 18.2548 23.2175 18.2594 23.2969ZM3.83955 23.3786C7.30863 23.1714 10.0821 20.3661 10.2498 16.8954C10.1807 16.8922 10.112 16.8863 10.0436 16.8812C9.88531 16.8695 9.72836 16.8546 9.57336 16.8335C9.43619 19.9825 6.91691 22.53 3.77015 22.7028C3.79123 22.8475 3.80712 22.9947 3.82041 23.1429C3.82755 23.221 3.83533 23.2989 3.83955 23.3786ZM32.0102 24.6793C31.9885 24.5327 31.9726 24.3852 31.9593 24.2357C31.9525 24.1582 31.9453 24.082 31.9408 24.0038C28.4717 24.2101 25.6982 27.015 25.5306 30.4867C25.6181 30.4903 25.7047 30.4974 25.7913 30.5046C25.931 30.5162 26.0705 30.5302 26.207 30.5487C26.3442 27.3993 28.8628 24.8521 32.0102 24.6793ZM4.53998 24.0719V24.0713C4.40314 24.0917 4.26499 24.1076 4.12556 24.1209C4.0393 24.1287 3.95207 24.1368 3.86419 24.1417C4.0714 27.6104 6.87638 30.3842 10.3474 30.5519C10.351 30.4744 10.3575 30.3975 10.3633 30.32C10.3756 30.1715 10.3899 30.0227 10.41 29.8751H10.409C7.26064 29.7383 4.71282 27.2197 4.53998 24.0719ZM23.2328 16.6088C23.0028 16.5527 22.7768 16.4868 22.555 16.4106C22.5557 16.4252 22.557 16.4398 22.557 16.4544C22.5716 19.0499 20.4719 21.1736 17.8761 21.1882C17.8615 21.1885 17.8469 21.1878 17.8323 21.1878C17.9101 21.408 17.9792 21.6331 18.0376 21.8623C20.8818 21.7641 23.1666 19.4543 23.2328 16.6088ZM17.8722 20.4251C20.0468 20.4128 21.8063 18.6335 21.7939 16.4586C21.7933 16.3357 21.7862 16.2135 21.7745 16.0932C21.7372 16.0753 21.6996 16.0565 21.6629 16.0377C21.6454 16.0296 21.6279 16.0215 21.6114 16.0124C21.531 15.9719 21.4512 15.9297 21.3727 15.8866C21.3244 15.86 21.2764 15.8315 21.2287 15.8042C21.2073 15.7913 21.1853 15.7793 21.1632 15.766C21.1133 15.7368 21.0637 15.7079 21.0141 15.6771C21.0776 15.9284 21.1133 16.1917 21.1149 16.4625C21.125 18.2632 19.6687 19.7367 17.868 19.7468C17.5972 19.7484 17.3336 19.716 17.0806 19.6543C17.1101 19.7001 17.1371 19.7468 17.1656 19.7938C17.1824 19.8207 17.1993 19.8483 17.2152 19.8765C17.2411 19.9199 17.2668 19.9634 17.2924 20.0072C17.3381 20.0879 17.3828 20.1703 17.4257 20.253C17.4328 20.2659 17.4389 20.2789 17.4458 20.2922C17.4662 20.3314 17.4866 20.3707 17.5061 20.4099C17.6267 20.4206 17.748 20.4258 17.8722 20.4251ZM32.3319 27.5543L32.328 26.8753C30.1534 26.8876 28.3939 28.6669 28.4059 30.8415L29.0852 30.8376C29.0749 29.0369 30.5312 27.5644 32.3319 27.5543ZM32.3241 26.1119L32.3234 25.9829C32.2628 25.8039 32.2093 25.6226 32.1626 25.4374C29.3181 25.5367 27.0336 27.8475 26.9671 30.692C27.1523 30.7361 27.3345 30.7886 27.5138 30.8473L27.6429 30.8463V30.8457C27.6283 28.2505 29.728 26.1269 32.3241 26.1119ZM32.3367 28.317C30.9563 28.3245 29.8405 29.4539 29.8483 30.8334L30.5273 30.8298C30.5215 29.8242 31.3351 29.0012 32.3403 28.996L32.3367 28.317ZM17.9124 27.6354C18.1835 27.6338 18.4471 27.6662 18.6991 27.7268C18.6686 27.6792 18.6397 27.6299 18.6099 27.5812C18.596 27.5582 18.582 27.5352 18.5684 27.5122C18.5408 27.4658 18.5129 27.4188 18.4864 27.3721C18.4416 27.2926 18.3985 27.2132 18.3566 27.1324C18.3479 27.1169 18.3401 27.101 18.3317 27.0854C18.3129 27.0475 18.2937 27.0102 18.2746 26.9722C18.1543 26.9619 18.0317 26.9554 17.9088 26.9563C15.7339 26.9687 13.9744 28.7483 13.9871 30.9229V30.9235L14.6651 30.9196V30.919C14.6551 29.1186 16.1117 27.6454 17.9124 27.6354ZM17.9169 28.3984C16.5371 28.4065 15.4207 29.535 15.4285 30.9148L16.1075 30.9112C16.102 29.9059 16.9152 29.0833 17.9208 29.0774C18.9261 29.0716 19.7488 29.8852 19.7543 30.8904L20.4333 30.8869C20.4255 29.5064 19.2964 28.3906 17.9169 28.3984ZM17.9043 26.1937C17.9189 26.1933 17.9335 26.194 17.9481 26.1946C17.8699 25.9738 17.8008 25.7488 17.7421 25.5192C14.8989 25.6177 12.6141 27.9285 12.5476 30.773C12.7324 30.8184 12.9147 30.8697 13.094 30.9284L13.2234 30.9274C13.2085 28.3319 15.3088 26.2082 17.9043 26.1937ZM3.48447 26.275C3.49906 26.275 3.51365 26.2754 3.52889 26.276C3.4501 26.0555 3.38102 25.8301 3.32298 25.6012C0.479097 25.6991 -1.80574 28.0102 -1.87189 30.8544C-1.68738 30.8998 -1.50513 30.9514 -1.32516 31.0098L-1.19643 31.0091C-1.21134 28.4133 0.888656 26.2896 3.48447 26.275ZM3.49258 27.7168C3.76367 27.7151 4.0273 27.7476 4.27926 27.8085C4.24878 27.7612 4.21992 27.7113 4.19009 27.6626C4.17614 27.6396 4.1622 27.6172 4.14923 27.5935C4.12102 27.5472 4.09378 27.5005 4.06654 27.4538C4.02179 27.3747 3.97866 27.2946 3.93683 27.2138C3.9284 27.1986 3.92029 27.1827 3.91186 27.1668C3.89305 27.1289 3.8736 27.0916 3.85479 27.0536C3.73448 27.0436 3.61256 27.0371 3.48901 27.0377C1.3141 27.0501 -0.445408 28.8297 -0.432761 31.0043V31.0049L0.246269 31.0013V31.0007C0.235892 29.2 1.69221 27.7268 3.49258 27.7168ZM3.49712 28.4798C2.11733 28.4879 1.00085 29.6164 1.00896 30.9968L1.68799 30.9926C1.68215 29.9873 2.49543 29.1647 3.50101 29.1588C4.50625 29.1533 5.32894 29.9666 5.33445 30.9718L6.01348 30.9683C6.0057 29.5882 4.87658 28.4723 3.49712 28.4798ZM17.8229 11.7738C17.8372 11.7738 17.8517 11.7742 17.8663 11.7748C17.7885 11.554 17.7194 11.3289 17.6608 11.0997C14.8169 11.1979 12.532 13.509 12.4659 16.3539C12.6958 16.4097 12.9218 16.4761 13.1436 16.5514C13.1426 16.5368 13.142 16.5222 13.1417 16.5076C13.1271 13.9121 15.2268 11.7884 17.8229 11.7738ZM-5.5631 23.8235C-5.55726 24.8288 -4.73458 25.6424 -3.72901 25.6369C-2.72376 25.6314 -1.91015 24.8087 -1.91599 23.8028C-1.9215 22.7975 -2.74418 21.9843 -3.74976 21.9898C-4.75501 21.9956 -5.56829 22.8183 -5.5631 23.8235ZM-6.24213 23.8278C-6.24959 22.4483 -5.13311 21.3188 -3.75365 21.3107C-2.37322 21.3033 -1.24474 22.4198 -1.23696 23.7992C-1.22918 25.1796 -2.34533 26.3081 -3.72511 26.3159C-5.10458 26.3237 -6.23402 25.2075 -6.24213 23.8278ZM10.3899 0.275413C10.4453 0.0458269 10.5125 -0.180193 10.5883 -0.401348C10.5731 -0.401348 10.5592 -0.40005 10.5439 -0.40005C7.9481 -0.385782 5.82443 -2.48546 5.80951 -5.08095C5.80951 -5.09554 5.81081 -5.11013 5.81048 -5.12472V-5.12537C5.58965 -5.0469 5.36526 -4.97783 5.13535 -4.91913C5.23393 -2.0746 7.5447 0.209261 10.3899 0.275413ZM10.4907 -9.8147C13.0865 -9.82961 15.2102 -7.72961 15.2251 -5.1338C15.2251 -5.11921 15.2235 -5.10462 15.2235 -5.09002V-5.08938C15.4447 -5.1685 15.6687 -5.23757 15.899 -5.29594C15.7997 -8.14015 13.4896 -10.4243 10.6444 -10.4905C10.5893 -10.2606 10.5219 -10.0349 10.4457 -9.81405H10.4463C10.4615 -9.81405 10.4755 -9.8147 10.4907 -9.8147ZM20.2293 -5.16299C20.2293 -5.17758 20.2303 -5.19152 20.2303 -5.20611V-5.20709C20.0095 -5.12829 19.7851 -5.05922 19.5552 -5.00085C19.6541 -2.15632 21.9645 0.127868 24.8094 0.19402C24.8658 -0.0362148 24.9319 -0.261585 25.0082 -0.48274H25.0075C24.9923 -0.48274 24.9786 -0.482092 24.9631 -0.481768C22.3676 -0.467175 20.2436 -2.56685 20.2293 -5.16299ZM25.0899 13.9367H25.0892C25.0737 13.9371 25.06 13.9377 25.0451 13.9377C22.449 13.9523 20.3253 11.8526 20.3107 9.25748C20.3107 9.24224 20.3117 9.22797 20.3117 9.21338V9.2124C20.0909 9.2912 19.8665 9.36027 19.6369 9.41897C19.7358 12.2632 22.0459 14.5474 24.8911 14.6142C24.9472 14.3836 25.0137 14.1579 25.0899 13.9367ZM10.539 -1.16339C10.6629 -1.16404 10.7845 -1.17085 10.9055 -1.18252C10.9233 -1.22079 10.9424 -1.25905 10.9616 -1.29634C10.9694 -1.31223 10.9771 -1.32845 10.9849 -1.34401C11.0261 -1.4254 11.0683 -1.50583 11.113 -1.5856C11.1386 -1.63294 11.1662 -1.67931 11.1931 -1.72633C11.2067 -1.74903 11.2203 -1.7727 11.234 -1.79573C11.2635 -1.84469 11.293 -1.8943 11.3231 -1.94327C11.3231 -1.94295 11.3225 -1.94295 11.3218 -1.94262C11.0696 -1.87906 10.8072 -1.84372 10.5355 -1.84242C8.73479 -1.83204 7.26194 -3.28836 7.25188 -5.08905C7.24994 -5.36014 7.28269 -5.62378 7.34365 -5.87639C7.3443 -5.87736 7.3443 -5.87736 7.3443 -5.87801C7.2989 -5.84915 7.25286 -5.82061 7.20713 -5.7924C7.17795 -5.77489 7.14876 -5.7577 7.12023 -5.74019C7.07807 -5.7149 7.03559 -5.68993 6.99182 -5.66561C6.91075 -5.61859 6.82773 -5.57384 6.74439 -5.53071C6.73272 -5.52455 6.72007 -5.51839 6.7084 -5.51158C6.66851 -5.4918 6.6283 -5.47072 6.58842 -5.45094C6.57837 -5.33064 6.5722 -5.20871 6.57285 -5.08516C6.58517 -2.91058 8.36447 -1.15074 10.539 -1.16339ZM17.831 13.2156C18.1018 13.2139 18.3657 13.2464 18.6177 13.307C18.5872 13.26 18.5583 13.2101 18.5282 13.1614C18.5142 13.1384 18.5006 13.1157 18.487 13.092C18.4591 13.046 18.4316 12.9989 18.405 12.9526C18.3602 12.8741 18.3168 12.794 18.2746 12.7126C18.2662 12.6971 18.2587 12.6815 18.2503 12.6656C18.2315 12.6277 18.2117 12.5904 18.1929 12.5524C18.0726 12.5424 17.9503 12.5362 17.8268 12.5365C15.6522 12.5489 13.893 14.3285 13.905 16.5037C13.906 16.6269 13.9128 16.7485 13.9248 16.8695C13.9647 16.888 14.0046 16.9084 14.0438 16.9282C14.0564 16.9343 14.0694 16.9405 14.0827 16.9473C14.1657 16.9898 14.2491 17.0336 14.3311 17.0786C14.3739 17.1026 14.4164 17.1266 14.4585 17.1516C14.4884 17.1694 14.5182 17.1873 14.549 17.2045C14.5941 17.2314 14.6398 17.2573 14.6849 17.2859C14.6204 17.0345 14.5853 16.7709 14.5834 16.5001C14.5733 14.6988 16.0303 13.2256 17.831 13.2156ZM24.5879 2.39422C24.5188 2.3913 24.4507 2.38481 24.3817 2.37963C24.2237 2.3686 24.0668 2.35368 23.9111 2.33228C23.774 5.48163 21.2557 8.0288 18.1082 8.20131C18.1297 8.34659 18.1455 8.49381 18.1582 8.64168C18.1656 8.71983 18.1728 8.79798 18.1776 8.8771C21.6471 8.67022 24.4199 5.86492 24.5879 2.39422ZM-3.2721 27.5764C-3.23027 27.4953 -3.18779 27.4149 -3.14402 27.3358C-3.11807 27.2881 -3.09051 27.2414 -3.06392 27.1947C-3.04998 27.1713 -3.03668 27.1483 -3.02274 27.1246C-2.99323 27.0757 -2.96404 27.0264 -2.93291 26.9777H-2.93518C-3.18715 27.042 -3.44981 27.0773 -3.7209 27.0789C-5.52159 27.089 -6.99477 25.6323 -7.00514 23.8316C-7.00644 23.5606 -6.97402 23.2969 -6.91273 23.045V23.0427C-6.95813 23.0722 -7.00352 23.0998 -7.04989 23.128C-7.07811 23.1461 -7.10697 23.1636 -7.13583 23.1802C-7.17863 23.2061 -7.22144 23.2311 -7.26392 23.2554C-7.34628 23.3018 -7.42897 23.3472 -7.51231 23.3906C-7.52398 23.3968 -7.53631 23.4026 -7.54798 23.4088C-7.58819 23.4289 -7.62807 23.4503 -7.66796 23.4694C-7.67866 23.5904 -7.68482 23.7123 -7.68418 23.8352C-7.67185 26.0111 -5.89256 27.7703 -3.71668 27.758C-3.59378 27.7576 -3.47186 27.7498 -3.35123 27.7379C-3.33339 27.6996 -3.31426 27.6626 -3.29513 27.6244C-3.28702 27.6085 -3.27956 27.5923 -3.2721 27.5764ZM8.69393 -5.09716C8.69944 -4.09191 9.52212 -3.27863 10.5274 -3.28414C11.5329 -3.28998 12.3462 -4.11266 12.3407 -5.11791C12.3349 -6.12349 11.5122 -6.93676 10.5069 -6.93093C9.50137 -6.92542 8.68809 -6.10273 8.69393 -5.09716ZM8.0149 -5.09359C8.00679 -6.47305 9.12359 -7.60217 10.5031 -7.60996C11.8825 -7.61806 13.012 -6.50126 13.0194 -5.1218C13.0275 -3.74234 11.9111 -2.6129 10.5313 -2.60511C9.15181 -2.59733 8.02268 -3.71381 8.0149 -5.09359ZM10.4982 -8.37297C12.2989 -8.38303 13.7727 -6.92639 13.7828 -5.12569C13.7844 -4.85493 13.752 -4.59194 13.6907 -4.33901V-4.33771C13.7393 -4.36884 13.7892 -4.399 13.8392 -4.4298C13.8606 -4.4431 13.8826 -4.45639 13.904 -4.46904C13.9517 -4.49725 13.9994 -4.52546 14.0474 -4.5527C14.1252 -4.59745 14.2043 -4.63993 14.2844 -4.68176C14.3013 -4.69052 14.3181 -4.69895 14.335 -4.70803C14.372 -4.72651 14.4086 -4.74532 14.4459 -4.76348C14.4563 -4.88476 14.4628 -5.00636 14.4618 -5.12959C14.4495 -7.30514 12.6699 -9.06433 10.4946 -9.052C10.3717 -9.05135 10.2498 -9.0439 10.1288 -9.0319C10.1107 -8.99299 10.0906 -8.9544 10.0718 -8.91548C10.0646 -8.90187 10.0572 -8.88727 10.05 -8.87333C10.0089 -8.78999 9.96476 -8.70827 9.92033 -8.62721C9.89569 -8.58278 9.87104 -8.53965 9.84575 -8.49652C9.82954 -8.46766 9.81203 -8.43913 9.79484 -8.41059C9.7676 -8.36422 9.73971 -8.31785 9.7115 -8.2718H9.7128C9.96411 -8.33633 10.2274 -8.37168 10.4982 -8.37297ZM25.1265 28.3575C22.5307 28.3721 20.407 26.2725 20.3921 23.6766C20.3921 23.662 20.3937 23.6478 20.3934 23.6332V23.6322C20.1726 23.711 19.9482 23.7801 19.7183 23.8385C19.8175 26.683 22.1273 28.9672 24.9728 29.0333C25.0286 28.8034 25.0954 28.5777 25.1713 28.3566C25.156 28.3566 25.1418 28.3572 25.1265 28.3575ZM-3.71279 28.5206C-6.30893 28.5352 -8.4326 26.4356 -8.44719 23.8397C-8.44719 23.8252 -8.44589 23.8106 -8.44589 23.796V23.7953C-8.66672 23.8741 -8.89112 23.9429 -9.12103 24.0019C-9.02213 26.8461 -6.712 29.1303 -3.8665 29.1964C-3.81072 28.9665 -3.74392 28.7405 -3.66804 28.5197H-3.66869C-3.68328 28.5197 -3.69788 28.5206 -3.71279 28.5206ZM25.5672 27.4136C25.609 27.3322 25.6518 27.2514 25.6953 27.1726C25.7216 27.1246 25.7488 27.0786 25.7757 27.0319C25.7893 27.0082 25.8029 26.9852 25.8166 26.9619C25.8457 26.9126 25.8753 26.8633 25.9064 26.8146H25.9044C25.6525 26.8792 25.3898 26.9145 25.1184 26.9158C23.318 26.9262 21.8445 25.4689 21.8342 23.6682C21.8329 23.3974 21.8653 23.1338 21.9266 22.8815V22.8799C21.8812 22.9091 21.8358 22.937 21.7894 22.9649C21.7609 22.983 21.7323 23.0005 21.7032 23.0174C21.6607 23.043 21.6179 23.0683 21.5754 23.0926C21.493 23.1387 21.4107 23.1844 21.3273 23.2275C21.3153 23.2337 21.303 23.2392 21.2913 23.2457C21.2511 23.2658 21.2112 23.2869 21.1713 23.3063C21.161 23.4276 21.1545 23.5495 21.1551 23.6724C21.1674 25.8477 22.9471 27.6072 25.1226 27.5948C25.2455 27.5942 25.3671 27.5864 25.4881 27.5751C25.5059 27.5368 25.525 27.4992 25.5445 27.4609C25.5523 27.445 25.5601 27.4295 25.5672 27.4136ZM2.40042 23.4727V23.4743C2.5551 23.4513 2.71205 23.4341 2.86964 23.4205C2.93871 23.414 3.00714 23.4068 3.07621 23.4033C2.86997 19.9345 0.0646753 17.1607 -3.40603 16.9937C-3.40992 17.0725 -3.41705 17.1506 -3.42289 17.2291C-3.43521 17.377 -3.44948 17.5242 -3.46959 17.6698H-3.46861C-0.319265 17.8073 2.22758 20.3259 2.40042 23.4727ZM-3.75819 20.548C-1.9575 20.538 -0.484321 21.9943 -0.473944 23.795C-0.471998 24.0658 -0.504751 24.3297 -0.565715 24.5823C-0.565715 24.5823 -0.566363 24.583 -0.566363 24.5833C-0.517398 24.5522 -0.467784 24.5217 -0.417197 24.4915C-0.396119 24.4782 -0.374067 24.465 -0.352665 24.4517C-0.304996 24.4238 -0.257652 24.3949 -0.209335 24.3686C-0.13151 24.3239 -0.0520649 24.2804 0.0280313 24.2393C0.0442448 24.2302 0.0617552 24.2221 0.0779696 24.2136C0.115585 24.1945 0.151904 24.175 0.18952 24.1569C0.199573 24.0366 0.205735 23.9147 0.205087 23.7908C0.192764 21.6162 -1.58653 19.8567 -3.76176 19.869C-3.88531 19.8697 -4.00658 19.8768 -4.12786 19.8885C-4.14635 19.928 -4.1658 19.9669 -4.18526 20.0055C-4.19207 20.0192 -4.19855 20.0341 -4.20634 20.048C-4.24817 20.131 -4.29097 20.2127 -4.33605 20.2941C-4.36102 20.3379 -4.38566 20.3807 -4.41095 20.4245C-4.42749 20.4527 -4.44468 20.4816 -4.46089 20.5098C-4.48878 20.5565 -4.51732 20.6028 -4.5452 20.6492C-4.5452 20.6492 -4.54456 20.6486 -4.54391 20.6486C-4.29259 20.585 -4.02928 20.5497 -3.75819 20.548ZM23.2769 23.6608C23.282 24.666 24.1047 25.4793 25.1103 25.4738C26.1159 25.4679 26.9291 24.6452 26.9236 23.64C26.9178 22.6348 26.0951 21.8211 25.0899 21.827C24.0843 21.8325 23.271 22.6552 23.2769 23.6608ZM22.5978 23.6643C22.5897 22.2849 23.7062 21.1554 25.0857 21.148C26.4654 21.1398 27.5946 22.2563 27.6027 23.6361C27.6101 25.0162 26.4936 26.1447 25.1142 26.1528C23.7347 26.1606 22.6053 25.0448 22.5978 23.6643ZM8.85671 23.7421C8.86255 24.7474 9.68556 25.561 10.6908 25.5552C11.6961 25.5493 12.5097 24.7266 12.5038 23.7214C12.498 22.7161 11.6753 21.9025 10.6701 21.9084C9.6648 21.9142 8.8512 22.7369 8.85671 23.7421ZM8.17801 23.7457C8.17023 22.3666 9.2867 21.2375 10.6662 21.2293C12.0456 21.2216 13.1747 22.3384 13.1829 23.7178C13.1903 25.0976 12.0738 26.2264 10.6944 26.2342C9.31524 26.242 8.18579 25.1261 8.17801 23.7457ZM-3.76597 19.106C-1.17016 19.0914 0.953509 21.1911 0.968426 23.7869C0.968426 23.8015 0.96713 23.8161 0.967454 23.8307V23.8313C1.18828 23.7528 1.41268 23.6838 1.64227 23.6251C1.54304 20.7806 -0.766764 18.4964 -3.61194 18.4302C-3.66804 18.6601 -3.73452 18.8861 -3.81072 19.107H-3.81007C-3.79581 19.107 -3.78121 19.1063 -3.76597 19.106ZM15.3869 23.7499C15.6075 23.6711 15.8322 23.6021 16.0618 23.5434C15.9629 20.6992 13.6527 18.415 10.8075 18.3488C10.7521 18.5787 10.685 18.8044 10.6088 19.0256H10.6097C10.625 19.0253 10.6386 19.0246 10.6535 19.0246C13.2497 19.01 15.3733 21.1097 15.3879 23.7055C15.3879 23.7201 15.3869 23.7347 15.3869 23.749V23.7499ZM13.8535 24.5019C13.9021 24.4708 13.9527 24.4397 14.0023 24.4098C14.0237 24.3965 14.0457 24.3832 14.0668 24.3703C14.1145 24.3424 14.1622 24.3135 14.2102 24.2869C14.2883 24.2422 14.3678 24.199 14.4478 24.1579C14.4641 24.1488 14.4812 24.1404 14.4978 24.1316C14.5351 24.1131 14.5717 24.0937 14.609 24.0755C14.62 23.9549 14.6255 23.8333 14.6249 23.7094C14.6126 21.5348 12.833 19.7753 10.6584 19.7876C10.5345 19.7883 10.4129 19.7954 10.292 19.8068C10.2735 19.8466 10.2537 19.8852 10.2346 19.9241C10.2277 19.9378 10.2209 19.9524 10.2135 19.9663C10.1716 20.0496 10.1275 20.1314 10.0834 20.2124C10.0585 20.2565 10.0342 20.2993 10.0089 20.3431C9.99232 20.3713 9.97513 20.3999 9.9586 20.4284C9.93039 20.4748 9.9025 20.5211 9.87461 20.5678C9.87461 20.5678 9.87526 20.5672 9.87591 20.5672C10.1282 20.5033 10.3902 20.4683 10.6623 20.4667C12.4626 20.4566 13.9355 21.9126 13.9459 23.713C13.9472 23.9844 13.9151 24.2477 13.8541 24.5006C13.8535 24.5006 13.8535 24.5013 13.8535 24.5019ZM10.7067 28.4389C8.11089 28.4535 5.98721 26.3538 5.97262 23.758C5.9723 23.7438 5.97392 23.7292 5.97392 23.7146V23.7139C5.75309 23.7924 5.52869 23.8615 5.29878 23.9205C5.39704 26.7647 7.70781 29.0486 10.553 29.1147C10.6084 28.8851 10.6756 28.6591 10.7518 28.438H10.7511C10.7359 28.4383 10.7219 28.4389 10.7067 28.4389ZM11.1477 27.495C11.1889 27.4139 11.232 27.3335 11.2758 27.254C11.3017 27.2064 11.3293 27.16 11.3559 27.1133C11.3698 27.0896 11.3831 27.0669 11.3971 27.0433C11.4266 26.994 11.4558 26.9447 11.4862 26.8964H11.4846C11.2327 26.9606 10.97 26.9959 10.6989 26.9972C8.89822 27.0076 7.42505 25.5506 7.41467 23.7503C7.41337 23.4788 7.4458 23.2155 7.50709 22.9636V22.9613C7.46169 22.9905 7.41629 23.0184 7.36992 23.0466C7.34106 23.0647 7.3122 23.0819 7.28301 23.0988C7.24086 23.1247 7.19838 23.1497 7.15557 23.174C7.07353 23.2204 6.99084 23.2658 6.90751 23.3089C6.89583 23.3151 6.88351 23.3209 6.87183 23.3271C6.83162 23.3475 6.79174 23.3683 6.75185 23.388C6.74115 23.509 6.73499 23.6309 6.73564 23.7538C6.74796 25.929 8.52725 27.6889 10.7031 27.6762C10.826 27.6756 10.9473 27.6681 11.0686 27.6565C11.0864 27.6182 11.1052 27.5806 11.1247 27.5426C11.1328 27.5267 11.1403 27.5109 11.1477 27.495ZM18.3823 -4.80045C18.2954 -4.79234 18.2088 -4.78423 18.1212 -4.77872C18.3281 -1.31029 21.1328 1.46355 24.6041 1.63088C24.607 1.55338 24.6145 1.47652 24.6203 1.39935C24.632 1.25018 24.6469 1.10166 24.6667 0.953794H24.666C21.517 0.816626 18.9698 -1.70169 18.797 -4.84909V-4.84974C18.6602 -4.82963 18.5214 -4.81374 18.3823 -4.80045ZM21.8452 8.46009C21.7998 8.4896 21.7544 8.51748 21.708 8.54505C21.6788 8.5632 21.6509 8.58072 21.6218 8.59758C21.5793 8.6232 21.5365 8.64849 21.4937 8.67313C21.4116 8.71886 21.3289 8.76361 21.2453 8.80771C21.2339 8.81419 21.2213 8.81971 21.2096 8.82587C21.1697 8.8463 21.1298 8.86738 21.0896 8.88716C21.0792 9.00746 21.0731 9.12971 21.0737 9.25294C21.0861 11.4282 22.8657 13.187 25.0409 13.1747C25.1641 13.1741 25.2857 13.1672 25.4067 13.1556C25.4245 13.1173 25.4437 13.0797 25.4625 13.0418C25.4709 13.0255 25.4787 13.0097 25.4858 12.9938C25.5276 12.9124 25.5701 12.8323 25.6139 12.7531C25.6402 12.7052 25.6674 12.6588 25.694 12.6121C25.7076 12.5884 25.7216 12.566 25.7348 12.5424C25.7644 12.4928 25.7939 12.4438 25.8247 12.3948H25.8227C25.5704 12.4594 25.3081 12.4947 25.037 12.4963C23.2363 12.5067 21.7628 11.0497 21.7528 9.24905C21.7515 8.97795 21.7836 8.71432 21.8452 8.46236V8.46009ZM25.0082 7.40717C24.0026 7.41301 23.1893 8.23569 23.1948 9.24094C23.2006 10.2465 24.0233 11.0598 25.0286 11.054C26.0345 11.0484 26.8474 10.2258 26.8416 9.22051C26.8364 8.21494 26.0137 7.40166 25.0082 7.40717ZM25.0043 6.72814C26.3837 6.72036 27.5132 7.83618 27.5206 9.21662C27.5287 10.5961 26.4123 11.7255 25.0328 11.733C23.653 11.7411 22.5239 10.6243 22.5158 9.24483C22.5083 7.86472 23.6248 6.73592 25.0043 6.72814ZM17.2895 23.3384C17.3579 23.3323 17.427 23.3258 17.496 23.3222C17.2891 19.8528 14.4838 17.079 11.0128 16.912C11.0092 16.9908 11.0028 17.0689 10.9963 17.1471C10.9849 17.2953 10.9703 17.4425 10.9502 17.5884H10.9512C14.1005 17.7256 16.6474 20.2442 16.8202 23.3916V23.3923C16.9749 23.3692 17.1319 23.3524 17.2895 23.3384ZM1.60627 16.5728C1.61179 17.5783 2.43447 18.3916 3.43972 18.3858C4.44562 18.3806 5.25889 17.5576 5.25306 16.5523C5.24755 15.5468 4.42486 14.7335 3.41961 14.7393C2.41371 14.7448 1.60044 15.5675 1.60627 16.5728ZM3.4154 14.0603C4.79486 14.0522 5.9243 15.169 5.93209 16.5485C5.93987 17.9279 4.8234 19.0574 3.44393 19.0648C2.06447 19.0729 0.935026 17.9564 0.927243 16.577C0.919461 15.1972 2.03594 14.0681 3.4154 14.0603ZM4.7193 11.1149C4.57597 10.6489 4.25819 10.1586 4.2303 9.65212C4.09345 9.67222 4.18328 9.68746 4.04416 9.70076C3.95726 9.70887 3.871 9.71697 3.78312 9.72248C3.98936 13.1912 6.79466 15.9648 10.2663 16.1324C10.2693 16.0543 10.2764 15.9774 10.2822 15.9006C10.2939 15.7514 10.3088 15.6025 10.3289 15.456H10.3279C7.68544 15.3409 5.46675 13.5486 4.7193 11.1149ZM16.0258 16.4914C16.0316 17.497 16.8543 18.3102 17.8595 18.3044C18.8651 18.2989 19.6787 17.4762 19.6729 16.4706C19.667 15.4654 18.8447 14.6521 17.8388 14.6576C16.8335 14.6634 16.0206 15.4861 16.0258 16.4914ZM15.3467 16.4953C15.3393 15.1158 16.4557 13.9864 17.8352 13.9786C19.2153 13.9708 20.3441 15.0876 20.3519 16.4671C20.3594 17.8465 19.2435 18.976 17.8634 18.9834C16.4843 18.9915 15.3548 17.8751 15.3467 16.4953ZM16.6565 -5.4477C16.6571 -5.4477 16.6571 -5.44737 16.6571 -5.44737C16.8121 -5.4704 16.9681 -5.48694 17.1257 -5.5012C17.1951 -5.50704 17.2635 -5.51353 17.3336 -5.51742C17.126 -8.98618 14.3211 -11.7597 10.8503 -11.9273C10.8465 -11.8485 10.8403 -11.7704 10.8335 -11.6926C10.8218 -11.544 10.8066 -11.3968 10.7878 -11.2509C13.9365 -11.1137 16.4846 -8.5951 16.6565 -5.4477ZM18.0265 -6.2185C18.0479 -6.07322 18.0645 -5.926 18.0768 -5.77846C18.0839 -5.69998 18.0917 -5.62119 18.0959 -5.54271C21.565 -5.74895 24.3388 -8.55489 24.5065 -12.0256C24.4374 -12.0285 24.3687 -12.0344 24.3003 -12.0395C24.1423 -12.0512 23.9847 -12.0661 23.8294 -12.0875C23.6929 -8.93818 21.1743 -6.39101 18.0265 -6.2185ZM12.3845 1.93407C12.6144 1.9892 12.8401 2.056 13.0619 2.1322C13.0616 2.11761 13.0603 2.10302 13.0603 2.08778C13.0457 -0.507709 15.1454 -2.63138 17.7412 -2.6463C17.7558 -2.6463 17.7704 -2.645 17.7846 -2.64532C17.7065 -2.86551 17.6377 -3.09088 17.5797 -3.32046C14.7355 -3.22123 12.4506 -0.911106 12.3845 1.93407ZM17.7451 -1.88263C15.5705 -1.87063 13.811 -0.0910168 13.8233 2.08356C13.8239 2.20679 13.8308 2.32904 13.8424 2.44934C13.883 2.46848 13.9225 2.48826 13.9618 2.50836C13.9751 2.51485 13.9883 2.52101 14.0007 2.52717C14.0847 2.56997 14.1673 2.61343 14.25 2.65915C14.2922 2.6825 14.3343 2.70714 14.3768 2.73211C14.4073 2.74897 14.4371 2.76681 14.467 2.78464C14.513 2.81123 14.5584 2.83815 14.6032 2.86636C14.5393 2.61408 14.5036 2.35077 14.5023 2.08C14.4923 0.279304 15.9483 -1.19355 17.749 -1.2036C18.0207 -1.20555 18.2837 -1.17344 18.5366 -1.11183C18.5055 -1.16047 18.4766 -1.20944 18.4471 -1.25808C18.4332 -1.28143 18.4189 -1.30445 18.4053 -1.32683C18.3774 -1.37385 18.3498 -1.41989 18.3232 -1.46756C18.2782 -1.54636 18.2347 -1.62613 18.1929 -1.70687C18.1851 -1.72276 18.1767 -1.73865 18.1692 -1.75454C18.1494 -1.79183 18.13 -1.82945 18.1108 -1.86771C17.9905 -1.87809 17.8693 -1.88328 17.7451 -1.88263ZM17.3579 -4.7544C13.8891 -4.54751 11.1156 -1.74222 10.9473 1.72848C11.0355 1.73238 11.1221 1.73951 11.2083 1.74664C11.3481 1.75832 11.4872 1.77194 11.6244 1.79042C11.7616 -1.3586 14.2805 -3.9061 17.4273 -4.07829C17.4059 -4.22486 17.3897 -4.37305 17.377 -4.52222C17.3699 -4.59875 17.3624 -4.67625 17.3579 -4.7544ZM9.49164 2.414C9.35448 5.56302 6.83584 8.11019 3.68876 8.28303C3.71016 8.42798 3.72605 8.5752 3.7387 8.7234C3.74616 8.80122 3.75329 8.87937 3.75816 8.95914C7.22692 8.75161 10.0004 5.94696 10.1681 2.47593C10.099 2.47269 10.0306 2.46621 9.96216 2.46102C9.80424 2.44999 9.64632 2.43508 9.49164 2.414ZM10.1532 5.50433C10.1464 5.51795 10.1386 5.53254 10.1321 5.54649C10.0903 5.62982 10.0462 5.71154 10.0017 5.79261C9.97708 5.83703 9.95276 5.87984 9.92714 5.92329C9.91093 5.95215 9.89374 5.98069 9.87656 6.0089C9.84899 6.0556 9.82111 6.10196 9.79322 6.14801H9.79452C10.0458 6.08348 10.3088 6.04814 10.5802 6.04652C12.3806 6.03614 13.8541 7.49343 13.8645 9.29412C13.8658 9.56489 13.8333 9.82788 13.7721 10.0808V10.0821C13.8207 10.051 13.8706 10.0208 13.9209 9.99001C13.9423 9.97672 13.9644 9.96342 13.9854 9.95078C14.0331 9.92224 14.0808 9.89435 14.1288 9.86711C14.2069 9.82236 14.2864 9.77988 14.3658 9.73772C14.3827 9.72929 14.3999 9.72087 14.4164 9.71178C14.4537 9.69298 14.4903 9.67417 14.5273 9.65601C14.538 9.53473 14.5442 9.41345 14.5435 9.2899C14.5312 7.11467 12.7516 5.35549 10.576 5.36749C10.4531 5.36814 10.3312 5.37592 10.2106 5.38791C10.1921 5.4265 10.172 5.46542 10.1532 5.50433ZM10.5274 4.60577H10.528C10.5429 4.60577 10.5569 4.60447 10.5721 4.60447C13.1679 4.58955 15.2916 6.6902 15.3065 9.28536C15.3065 9.30061 15.3049 9.3152 15.3052 9.32914V9.33011C15.5261 9.25132 15.7505 9.18225 15.9804 9.12387C15.8811 6.27967 13.5713 3.99548 10.7258 3.92868C10.6707 4.15924 10.6033 4.38461 10.5274 4.60577ZM3.37486 6.85039C3.36027 6.85039 3.34568 6.84974 3.33044 6.84909C3.40891 7.06992 3.47798 7.29497 3.53635 7.52423C6.38056 7.42598 8.66507 5.11488 8.73154 2.27099C8.50163 2.21457 8.27562 2.14874 8.05381 2.07254C8.05414 2.08713 8.05576 2.10172 8.05576 2.11631C8.07003 4.71213 5.97035 6.8358 3.37486 6.85039ZM8.77532 9.32233C8.78083 10.3279 9.60352 11.1412 10.6091 11.1357C11.6147 11.1298 12.4276 10.3071 12.4221 9.3019C12.4166 8.29633 11.5939 7.48305 10.5883 7.48889C9.58309 7.4944 8.76949 8.31708 8.77532 9.32233ZM8.09629 9.32622C8.08851 7.94611 9.20498 6.81764 10.5844 6.80986C11.9639 6.80175 13.0934 7.91758 13.1015 9.29801C13.1089 10.6775 11.9924 11.8069 10.613 11.8147C9.2332 11.8225 8.10407 10.706 8.09629 9.32622ZM3.36643 5.40867C3.09534 5.40997 2.83171 5.37754 2.5791 5.3169C2.60828 5.3623 2.63649 5.40932 2.66406 5.45504C2.68092 5.4826 2.69778 5.51049 2.71464 5.53805C2.74058 5.58118 2.7662 5.62496 2.79052 5.66906C2.83689 5.75045 2.88164 5.83152 2.92477 5.91454C2.93093 5.92751 2.93807 5.94145 2.94455 5.95442C2.96433 5.99301 2.98476 6.03225 3.00454 6.07149C3.12485 6.08186 3.24742 6.08835 3.37032 6.0877C5.5449 6.07505 7.30474 4.29576 7.29209 2.12086C7.29144 1.99731 7.28463 1.87538 7.27296 1.75507C7.23534 1.73756 7.1987 1.71843 7.16141 1.69995C7.14455 1.69184 7.12704 1.68276 7.10985 1.67465C7.02975 1.6338 6.95031 1.59196 6.87151 1.54819C6.82254 1.52127 6.77552 1.49403 6.72786 1.46582C6.70548 1.4535 6.68408 1.44053 6.66268 1.42756C6.61242 1.39805 6.56183 1.36919 6.51254 1.33838C6.57674 1.59034 6.61241 1.85301 6.61403 2.12475C6.62409 3.92544 5.16713 5.39829 3.36643 5.40867ZM10.1843 1.71259C10.1872 1.63509 10.1947 1.55792 10.2005 1.48139C10.2128 1.33092 10.2271 1.18305 10.2469 1.03583H10.2462C7.09688 0.898666 4.55003 -1.61965 4.37719 -4.76705V-4.76802C4.24035 -4.74792 4.10156 -4.73203 3.96245 -4.71841C3.87619 -4.71062 3.78896 -4.70252 3.70141 -4.69765C3.90829 -1.22825 6.71359 1.54462 10.1843 1.71259ZM10.9152 2.72757C10.9035 2.87577 10.8886 3.02299 10.8692 3.16891H10.8701C14.0182 3.30608 16.5657 5.82471 16.7385 8.97211C16.7392 8.97211 16.7392 8.97211 16.7392 8.97276C16.8935 8.94942 17.0501 8.93288 17.2074 8.91893C17.2768 8.91277 17.3449 8.90629 17.415 8.90207C17.2081 5.43299 14.4028 2.65915 10.9317 2.49247C10.9282 2.57127 10.9217 2.64942 10.9152 2.72757ZM19.5912 2.05114C19.5853 1.04556 18.7633 0.232284 17.7574 0.23812C16.7521 0.243633 15.9385 1.06632 15.9444 2.07156C15.9502 3.07714 16.7729 3.89042 17.7781 3.88491C18.7834 3.87907 19.597 3.05639 19.5912 2.05114ZM17.7817 4.56361C16.4026 4.57172 15.2734 3.45492 15.2653 2.07546C15.2579 0.695995 16.3744 -0.43345 17.7538 -0.440908C19.1333 -0.449016 20.2627 0.667784 20.2702 2.04725C20.278 3.42671 19.1615 4.55615 17.7817 4.56361ZM1.52456 2.15328C1.53039 3.15853 2.35308 3.97181 3.35833 3.9663C4.36357 3.96079 5.17718 3.13778 5.17134 2.13253C5.16615 1.12728 4.34315 0.313676 3.33757 0.319513C2.33232 0.325026 1.51904 1.14771 1.52456 2.15328ZM0.845527 2.15717C0.837745 0.777388 1.95389 -0.351733 3.334 -0.359516C4.71347 -0.367622 5.84291 0.749177 5.85037 2.12864C5.85848 3.5081 4.742 4.63755 3.36254 4.64565C1.98211 4.65311 0.853634 3.53663 0.845527 2.15717ZM17.7947 6.76867C17.7801 6.76867 17.7655 6.76835 17.7503 6.7677C17.8287 6.98853 17.8978 7.21358 17.9562 7.44284C20.8004 7.34459 23.0849 5.03349 23.1514 2.18895C22.9214 2.13285 22.6954 2.06703 22.4736 1.99115C22.4739 2.00574 22.4756 2.02033 22.4756 2.0346C22.4898 4.63041 20.3905 6.75441 17.7947 6.76867ZM11.043 13.1231C11.0514 13.1069 11.0589 13.091 11.0663 13.0755C11.1075 12.9941 11.1503 12.9137 11.1944 12.8345C11.2203 12.7866 11.2476 12.7402 11.2745 12.6938C11.2878 12.6701 11.3017 12.6474 11.3157 12.6238C11.3449 12.5742 11.3744 12.5252 11.4045 12.4769H11.4032C11.1513 12.5407 10.8886 12.5764 10.6175 12.578C8.81683 12.5881 7.34365 11.1311 7.33328 9.33044C7.33165 9.05935 7.36408 8.79571 7.42569 8.54375V8.54148C7.38029 8.57099 7.33457 8.59888 7.28853 8.62709C7.25934 8.64492 7.23048 8.66211 7.20162 8.67897C7.15946 8.70491 7.11698 8.73021 7.07386 8.75453C6.99214 8.8009 6.90912 8.84565 6.82579 8.88943C6.81444 8.89559 6.80147 8.9011 6.78979 8.90791C6.74991 8.92769 6.71002 8.94877 6.66981 8.96855C6.65976 9.08885 6.6536 9.21111 6.65425 9.33433C6.66657 11.5096 8.44586 13.2684 10.6211 13.2561C10.7446 13.2554 10.8659 13.2486 10.9872 13.237C11.005 13.1987 11.0238 13.1614 11.043 13.1231ZM11.7061 16.2102C11.8433 13.0612 14.3616 10.5137 17.509 10.3412C17.4876 10.195 17.4714 10.0468 17.4581 9.89759C17.4516 9.82042 17.4435 9.74356 17.4396 9.66541C13.9708 9.87165 11.197 12.6769 11.0294 16.1483C11.1172 16.1519 11.2035 16.1593 11.2901 16.1661C11.4302 16.1778 11.5689 16.1917 11.7061 16.2102ZM10.6701 14.0181H10.6691C10.6548 14.0181 10.6402 14.0198 10.6253 14.0198C8.02982 14.034 5.90615 11.9344 5.89155 9.33887C5.89155 9.32428 5.89188 9.30968 5.89188 9.29444V9.29379C5.67202 9.37259 5.44665 9.44199 5.21706 9.50036C5.31597 12.3442 7.62609 14.6291 10.4713 14.6952C10.5274 14.4656 10.5938 14.2396 10.6701 14.0181ZM17.0839 5.37365C17.0563 5.32728 17.0281 5.28058 16.9989 5.23518C17.2515 5.29614 17.5152 5.32857 17.7862 5.32663C19.5869 5.31658 21.0433 3.84372 21.0329 2.04303C21.0316 1.77161 20.9966 1.50895 20.9324 1.25699C20.9816 1.2878 21.0322 1.31633 21.0825 1.34584C21.1039 1.35914 21.1253 1.37211 21.1467 1.3841C21.195 1.41264 21.2424 1.43988 21.2913 1.46647C21.3701 1.51025 21.4492 1.55208 21.5297 1.59294C21.5468 1.60137 21.5637 1.61012 21.5812 1.61823C21.6185 1.63704 21.6552 1.65585 21.6928 1.67368C21.7044 1.79399 21.7113 1.91559 21.7119 2.03946C21.7246 4.21404 19.9647 5.99366 17.7901 6.00566C17.6666 6.00663 17.5447 6.00014 17.4244 5.99009C17.4046 5.95085 17.3841 5.91162 17.364 5.8727C17.3579 5.85941 17.3507 5.84579 17.3439 5.83249C17.3011 5.75013 17.2567 5.66874 17.2103 5.58734C17.186 5.54324 17.1604 5.49979 17.1345 5.45666C17.1173 5.42877 17.1007 5.40121 17.0839 5.37365Z" fill="white"/>
</g>
</g>
</g>
</g>
<g id="Group_4">
<g id="Clip path group_2">
<mask id="mask1_758_666" style="mask-type:luminance" maskUnits="userSpaceOnUse" x="16" y="23" width="25" height="19">
<g id="_clip12">
<path id="Vector_3" d="M25.3588 25.4096C24.109 26.3179 23.0305 27.5329 22.1225 28.8427C20.0841 31.8642 19.2287 34.4179 18.6336 36.5101C18.6226 36.5604 18.61 36.611 18.6002 36.6577C18.5973 36.6583 18.5951 36.6603 18.5925 36.6606C17.9848 38.9071 18.0837 41.6576 16.4675 41.8905C17.5133 41.8879 20.1415 41.8863 22.4734 41.9239C24.7602 41.9618 26.9905 42.1651 27.6397 41.6933C29.6392 40.2409 29.6016 36.0039 31.9759 34.2791C33.0648 33.4882 34.8298 33.5962 36.4606 33.7045C38.1997 33.8199 39.7863 33.9357 40.2364 32.96C41.1357 31.0078 38.0833 30.2429 35.9599 28.819C34.1443 27.6017 31.9633 25.9946 29.7027 23.0962C28.5454 23.4863 27.0495 24.1812 25.3588 25.4096Z" fill="white"/>
</g>
</mask>
<g mask="url(#mask1_758_666)">
<g id="Group_5">
<g id="Group_6">
<path id="Vector_4" d="M31.9511 23.2557L34.8297 28.1224C35.1926 28.9111 35.548 29.8366 35.7296 30.7565C35.9264 31.7524 35.8842 32.6555 35.7208 33.7522C35.5133 33.7411 35.307 33.733 35.1005 33.7278C35.2733 32.6 35.3041 31.7929 35.1238 30.8762C34.9163 29.8278 34.4269 28.5729 33.721 27.2845C33.7216 27.2852 33.7229 27.2865 33.7239 27.2871L33.7236 27.2865C33.088 26.1314 32.2465 24.834 31.3697 23.2557M31.1615 24.8009C30.4695 24.5272 28.9665 23.9584 27.8348 23.8809C28.1996 23.7003 28.5543 23.5336 28.8812 23.402L31.311 24.1968L31.1615 24.8009Z" fill="white"/>
</g>
<g id="Group_7">
<path id="Vector_5" d="M23.8407 37.3753L23.662 37.5436C22.8906 38.2674 21.4644 39.6118 20.6093 42.015C20.8288 42.0169 21.05 42.0192 21.2715 42.0215C22.0831 39.8878 23.3747 38.661 24.0852 37.9947L24.2681 37.8218C25.0561 37.0676 25.68 36.0587 26.024 34.9821C26.1405 34.617 26.2238 34.2143 25.9556 33.9993C25.6573 33.7596 25.2555 33.9941 24.8288 34.2431L24.678 34.33C24.2149 34.5933 23.4406 35.4572 22.5507 36.4754C22.3902 36.6586 22.243 36.8263 22.1185 36.9661C21.4177 37.7485 21.2501 38.1659 20.991 38.8965C20.9342 39.0573 21.0182 39.2337 21.1794 39.2908C21.3418 39.3485 21.517 39.2639 21.574 39.103C21.8185 38.4113 21.9534 38.0764 22.5786 37.3789C22.7051 37.2378 22.8539 37.0676 23.0161 36.8821C23.6361 36.1722 24.5736 35.1002 24.9834 34.867L25.1394 34.7769C25.2393 34.7188 25.3791 34.6374 25.4935 34.5813C25.4815 34.6361 25.463 34.7062 25.4348 34.7937C25.1219 35.7747 24.5561 36.6907 23.8407 37.3753Z" fill="white"/>
</g>
<g id="Group_8">
<path id="Vector_6" d="M26.5477 37.0754C27.921 35.1031 27.7135 33.7425 27.2974 32.9474C26.9891 32.3582 26.5646 32.1756 26.2633 32.1253C25.7682 32.0469 25.2289 32.2482 24.7704 32.6844C24.5051 32.936 24.1513 33.2292 23.7035 33.6005C23.1289 34.0765 22.4132 34.6696 21.5931 35.4219C20.1456 36.7488 19.989 37.7479 19.7921 39.0136L19.7584 39.226C19.5794 40.3531 19.4487 41.0065 19.0635 42.0056C19.2781 42.0066 19.497 42.0076 19.7214 42.0086C20.0635 41.075 20.1994 40.3898 20.3693 39.3226L20.4027 39.1082C20.5885 37.9182 20.7221 37.0579 22.0105 35.8772C22.8195 35.1352 23.5287 34.548 24.0978 34.0765C24.5554 33.6977 24.9163 33.3984 25.1961 33.1322C25.5084 32.8358 25.8697 32.6879 26.1625 32.7356C26.3992 32.7749 26.5973 32.9425 26.7501 33.234C27.2329 34.1563 26.9871 35.3622 26.0409 36.7216C25.6346 37.3053 25.2344 37.7615 24.8476 38.2029C24.2149 38.9247 23.6173 39.6063 23.1114 40.7059C22.8906 41.1868 22.6953 41.6347 22.5248 42.0394C22.7472 42.0436 22.9697 42.0488 23.1892 42.0553C23.3345 41.7164 23.495 41.3506 23.6727 40.9644C24.141 39.9468 24.6838 39.3275 25.3122 38.6102C25.7104 38.1562 26.1223 37.6866 26.5477 37.0754Z" fill="white"/>
</g>
<g id="Group_9">
<path id="Vector_7" d="M26.7761 37.9077C26.6149 37.8607 26.4411 37.9525 26.3921 38.1166C26.1301 39.0044 25.1768 40.7137 24.4073 42.0925C24.6475 42.0993 24.8804 42.1048 25.1057 42.1084C25.8581 40.7584 26.7222 39.1828 26.9849 38.2917C27.0332 38.1282 26.9398 37.9561 26.7761 37.9077Z" fill="white"/>
</g>
<g id="Group_10">
<path id="Vector_8" d="M27.8134 37.4677C27.6587 38.6578 27.1814 40.0344 26.4592 42.0841C26.7235 42.065 26.9554 42.0338 27.149 41.9871C27.8228 40.0703 28.2716 38.7399 28.4266 37.5475C28.5884 36.3052 28.6812 35.7747 28.9263 34.4568C29.1588 33.2077 29.2665 32.0164 28.0501 31.1813C27.0426 30.489 25.7955 30.5257 24.6307 31.2841C23.7629 31.8477 22.9713 32.4392 21.9849 33.2606C21.0659 34.0269 20.7841 34.2759 19.7682 35.4637C18.8138 36.5792 18.6575 37.7258 18.4763 39.0537L18.4179 39.474C18.2399 40.7202 18.0518 41.1155 17.64 41.9793L17.6289 42.0024C17.8433 42.0024 18.0716 42.0027 18.3125 42.003C18.654 41.2796 18.8573 40.7705 19.0298 39.5609L19.0885 39.1377C19.2633 37.8552 19.4017 36.8428 20.2377 35.8655C21.2209 34.7159 21.4936 34.475 22.3812 33.735C23.3475 32.9305 24.1206 32.3523 24.9676 31.802C25.5227 31.4408 26.6159 30.9456 27.6999 31.6908C28.5382 32.2664 28.5677 33.0054 28.3193 34.3443C28.0712 35.6742 27.9775 36.2095 27.8134 37.4677Z" fill="white"/>
</g>
<g id="Group_11">
<path id="Vector_9" d="M19.2995 34.3888C19.8511 33.7571 20.525 33.1192 21.1015 32.6487C21.2773 32.5054 21.4644 32.3536 21.669 32.183C22.7313 31.2929 23.1876 31.0945 24.3284 30.6032C25.2247 30.2173 25.4439 30.2082 26.1706 30.1781C26.3729 30.1706 26.6106 30.1599 26.9067 30.1408C28.2985 30.048 28.6532 30.0821 29.2285 30.6466C29.7048 31.1139 30.2045 31.9184 29.8417 34.0132C29.7415 34.5904 29.6183 35.2231 29.4892 35.8882C29.2162 37.29 28.9178 38.8569 28.7417 40.3596C29.1202 39.628 29.4162 38.7671 29.7386 37.9061C29.8553 37.256 29.9775 36.6136 30.0959 36.0066C30.2259 35.3366 30.3501 34.6997 30.45 34.1186C30.7675 32.2884 30.5165 31.0448 29.6617 30.2063C28.8676 29.4267 28.2326 29.4322 26.8661 29.5237C26.5756 29.5431 26.3431 29.5529 26.1446 29.561C25.3738 29.5924 25.0846 29.6051 24.0845 30.036C22.8756 30.5562 22.3912 30.7721 21.2718 31.7083C21.0704 31.8782 20.8849 32.0284 20.7117 32.1694C20.4231 32.4045 19.9134 32.842 19.9134 32.842L19.5486 33.6141L19.2995 34.3888Z" fill="white"/>
</g>
<g id="Group_12">
<path id="Vector_10" d="M21.1603 30.3551C21.802 29.9835 22.5116 29.6063 23.1624 29.3975C24.3512 29.0168 26.1866 28.7542 27.1104 28.689C28.0106 28.6251 28.7272 28.8171 29.7636 29.1417C30.5756 29.3962 31.0361 30.2254 31.1317 31.6048C31.2134 32.781 31.0961 34.0946 30.7656 35.6878C30.9985 35.3162 31.264 34.9753 31.5763 34.6829C31.7573 33.522 31.814 32.5021 31.7485 31.5624C31.6052 29.4961 30.6907 28.7846 29.9485 28.5518C28.9834 28.2493 28.2149 27.9911 27.0673 28.0729C25.9524 28.1507 24.1391 28.4354 22.974 28.8086C22.6529 28.9114 22.1646 29.142 21.8033 29.3164" fill="white"/>
</g>
<g id="Group_13">
<path id="Vector_11" d="M33.1117 33.8797C33.1405 32.1785 33.0021 30.716 32.7115 29.7066C32.3289 28.3751 31.3479 27.7272 30.345 27.2256C29.222 26.6642 27.9126 26.8475 26.2562 27.0806L25.9757 27.1198C25.3709 27.2042 24.9143 27.2421 24.5006 27.2771C24.0852 27.3115 23.6656 27.342 23.2109 27.4149C22.9982 27.6591 22.8014 27.9098 22.6032 28.1676C23.3851 27.9899 23.9289 27.9451 24.5521 27.8926C24.9685 27.8579 25.4406 27.818 26.0613 27.7321L26.3421 27.6928C27.8925 27.4746 29.1176 27.3027 30.0687 27.7784C31.0817 28.2853 31.8185 28.8362 32.1178 29.8768C32.4034 30.8704 32.5315 32.3478 32.4891 34.0758C32.6839 33.9928 32.8934 33.9299 33.1117 33.8797Z" fill="white"/>
</g>
<g id="Group_14">
<path id="Vector_12" d="M27.2395 26.2514C27.9606 26.2611 28.7376 26.3931 28.9584 26.4333C29.1228 26.4638 29.2876 26.3532 29.3184 26.1849C29.3485 26.0169 29.2373 25.8561 29.0697 25.8256C28.7707 25.7708 27.9957 25.6434 27.2479 25.6333C26.8121 25.621 25.9031 25.7001 24.7601 25.8723C24.4646 26.1133 24.213 26.3574 23.938 26.6288C25.5309 26.3454 26.7063 26.2355 27.2395 26.2514Z" fill="white"/>
</g>
<g id="Group_15">
<path id="Vector_13" d="M26.445 24.6589C26.1596 24.8353 25.8623 25.0406 25.5627 25.2487L25.9508 25.2121C27.231 25.1044 28.3352 25.0117 28.975 25.2484C29.7957 25.5526 31.541 26.5199 32.0955 27.3662C32.2174 27.5521 32.3526 27.7366 32.4927 27.9269C32.9973 28.6137 33.5194 29.3242 33.7042 30.5091C33.8657 31.5448 33.8654 32.7158 33.8132 33.7668C34.0162 33.7467 34.2227 33.7334 34.4341 33.7279C34.4844 32.6616 34.4802 31.4758 34.3148 30.4134C34.1063 29.0797 33.5138 28.2726 32.9905 27.5605C32.8572 27.3799 32.7288 27.2041 32.612 27.0274C31.9528 26.0218 30.0263 24.9789 29.19 24.6689L26.6915 24.5188" fill="white"/>
</g>
<g id="Group_16">
<path id="Vector_14" d="M38.8987 30.5714L38.8984 30.571C39.1974 31.4696 39.4451 32.5083 39.2051 33.76C39.4714 33.6977 39.6971 33.5991 39.8793 33.4603C39.9789 32.6214 39.8881 31.86 39.712 31.1508L39.6085 30.6764L38.7304 30.1005L38.8987 30.5714Z" fill="white"/>
</g>
<g id="Group_17">
<path id="Vector_15" d="M35.7633 28.7743L35.7636 28.7746C35.8742 29.0619 35.9588 29.2448 36.0302 29.3972C36.1968 29.7523 36.2886 29.9475 36.5386 31.2949C36.6852 32.0894 36.643 32.998 36.537 33.8015C36.7452 33.8151 36.9504 33.8284 37.1518 33.8395C37.2624 32.9886 37.3029 32.0323 37.1457 31.1827C36.9326 30.0309 36.8233 29.6648 36.6904 29.3551L36.608 29.1161L35.7078 28.6436L35.7633 28.7743Z" fill="white"/>
</g>
<g id="Group_18">
<path id="Vector_16" d="M37.4645 29.7802L37.492 29.8742C37.8367 31.0413 38.0855 31.8837 38.0112 32.8575C37.983 33.2191 37.9493 33.5541 37.9149 33.867C38.1331 33.8699 38.3397 33.8641 38.5378 33.8517C38.5699 33.5557 38.6007 33.2431 38.627 32.9045C38.6987 31.9749 38.5018 31.148 38.2262 30.1907L38.0676 29.5733L37.2936 29.2545L37.4645 29.7802Z" fill="white"/>
</g>
</g>
</g>
</g>
</g>
<g id="Group_19">
<g id="Clip path group_3">
<mask id="mask2_758_666" style="mask-type:luminance" maskUnits="userSpaceOnUse" x="26" y="6" width="18" height="27">
<g id="_clip13">
<path id="Vector_17" d="M33.9666 9.9427C32.2479 11.2926 30.0454 12.8706 26.5903 14.1252C26.6039 15.3454 26.8024 16.9833 27.448 18.9708C27.926 20.4407 28.7477 21.8419 29.7131 23.1095C31.957 25.9826 34.1216 27.5848 35.9278 28.7976C35.9719 28.8239 36.0163 28.8511 36.0568 28.8751C36.0568 28.8777 36.0575 28.8803 36.0575 28.8826C38.0067 30.1553 40.6528 30.9112 40.3749 32.5203C40.6956 31.5247 41.5063 29.0243 42.2631 26.8186C43.0051 24.6557 43.8877 22.5968 43.64 21.8341C42.8763 19.4835 38.8352 18.2101 37.9282 15.4187C37.0686 12.7739 40.7546 8.5681 39.2263 7.15491C38.9059 6.85917 38.582 6.73303 38.2525 6.73303C36.956 6.73271 35.5698 8.68289 33.9666 9.9427Z" fill="white"/>
</g>
</mask>
<g mask="url(#mask2_758_666)">
<g id="Group_20">
<path id="Vector_18" d="M33.2723 10.4735C34.764 12.2424 36.5767 14.0684 38.0009 15.5753C38.1131 15.8831 38.2794 16.1986 38.4588 16.4729C37.8793 16.1036 37.2421 15.6862 36.6639 15.2527C38.676 18.6637 39.0797 22.6747 38.01 26.0212C38.0126 24.4841 37.9795 22.7917 37.0806 19.0262C35.0808 17.5793 32.7052 14.8775 31.3909 11.782L32.0067 11.3688C33.033 13.0693 34.4031 14.7847 36.3737 17.2726C36.3747 17.2739 36.5361 17.4726 36.7654 17.7544C36.5293 16.8416 36.2446 15.8117 35.9109 14.6664C34.6119 13.6154 33.3686 12.3935 32.4114 11.0848M34.62 9.30646L34.6716 9.35899C35.7689 10.4158 36.9635 11.5271 38.1348 12.6909C38.0618 12.9211 38.0002 13.1488 37.9467 13.3751C36.5284 12.426 35.0545 11.2998 33.8006 10.0688M30.8656 12.0965C31.1344 12.6601 31.5021 13.3849 31.9117 14.1505L31.9123 14.1501C32.4814 15.2228 34.1547 17.2872 35.2086 19.0058C35.2491 19.0716 35.2938 19.1394 35.3324 19.2043C35.3379 19.2137 35.3448 19.2234 35.3503 19.2331C35.3581 19.2464 35.3652 19.2607 35.3726 19.274C36.922 21.8601 37.8631 24.7464 37.0686 27.5294C37.0248 26.4755 36.7278 25.288 36.2968 24.0308C35.6982 22.4415 35.0279 21.4632 33.8229 19.5928C33.8223 19.5911 33.8213 19.5898 33.8203 19.5882C32.3608 17.5599 31.0339 14.9592 30.6117 12.2512M30.2459 12.4539C30.3389 13.7347 30.4657 15.0468 30.658 16.2975C30.8896 17.8021 31.1107 19.6437 31.2634 21.6068C33.0155 23.9293 34.4099 26.1265 34.8285 28.1186L34.8331 28.1225L33.724 27.2845C33.7247 27.2852 33.7263 27.2861 33.727 27.2868L33.7266 27.2861C33.0911 26.1314 32.2496 24.834 31.3727 23.2554C31.4071 23.903 31.433 24.5548 31.4476 25.2098C31.304 25.06 31.0141 24.7432 31.0141 24.7432L30.9651 24.6757C30.1107 21.564 29.7676 18.3485 29.8824 15.4673C29.9187 14.5516 29.9141 13.5775 29.8973 12.6432M28.5155 13.3103L28.4919 13.3871C27.9821 14.5273 27.3819 15.5225 26.7541 16.3669C26.6584 15.7949 26.603 15.2721 26.5748 14.7967C26.745 14.5526 27.0352 14.1323 27.224 13.8615L28.5155 13.3103ZM29.3947 16.3283C29.382 16.3701 28.7526 18.3073 28.0295 20.5088C28.2017 20.8613 28.3881 21.2073 28.5911 21.5475C29.166 19.8801 29.465 18.1215 29.3947 16.3283ZM27.033 17.7019C27.1377 18.1235 27.2606 18.5619 27.4101 19.0217C27.4224 19.0596 27.4406 19.096 27.4536 19.1333C28.5716 17.2178 29.0821 15.42 29.4118 13.8132C28.4838 15.0766 27.7846 16.1276 27.033 17.7019ZM41.6473 19.4222C41.409 19.2286 41.1418 19.0123 40.8941 18.8174C40.8603 19.705 40.8801 20.5902 40.9401 21.5261C41.1846 20.8902 41.4502 20.1628 41.6473 19.4222ZM39.3317 24.0444C40.0467 21.9389 40.2322 19.9122 40.1375 18.2162C39.7646 17.9056 39.4021 17.5836 39.0804 17.2401C39.1365 18.76 39.2013 20.9492 39.3317 24.0444ZM39.7153 31.1505C40.1884 31.5646 40.4625 32.0235 40.3733 32.588C40.3723 32.5948 40.3729 32.6007 40.372 32.6075C40.3736 32.6017 40.3762 32.5945 40.3781 32.5887C40.4946 32.2271 40.6732 31.6746 40.8895 31.0134C40.431 31.0078 39.9987 31.0172 39.583 31.0374L39.7153 31.1505ZM42.2486 26.9392C40.1774 27.4123 38.3158 28.2311 37.1192 29.5924C37.1506 29.6096 37.1818 29.6271 37.2135 29.6439C38.3132 28.9831 39.9465 28.5301 41.8465 28.1241C41.9797 27.7268 42.1146 27.3286 42.2486 26.9392ZM42.9435 24.9822C40.8928 25.62 39.0603 26.6383 37.8718 28.1935C38.8998 27.4587 40.6061 26.8065 42.4982 26.2267C42.651 25.7977 42.8005 25.3827 42.9435 24.9822ZM38.2295 30.1907C38.3365 30.2494 38.449 30.3081 38.5525 30.3664C39.333 30.2254 40.2212 30.133 41.207 30.0457C41.3253 29.6858 41.4495 29.3106 41.5776 28.927C40.1411 29.1066 38.8323 29.4192 37.7869 29.9501L38.2295 30.1907ZM43.5956 22.8832C41.7813 23.7937 40.0779 25.0422 38.8868 26.6496C40.3019 25.5526 41.6172 24.8132 43.2454 24.1089C43.3975 23.6523 43.5187 23.2395 43.5956 22.8832ZM40.5023 24.2409C41.0945 23.8109 42.2755 23.1166 43.677 22.3442C43.6877 22.1685 43.7055 22.006 43.6672 21.8876C43.6141 21.7232 43.5411 21.5394 43.4578 21.3844C42.352 22.1775 41.313 23.1458 40.5023 24.2409ZM36.6934 29.355C36.6934 29.355 36.7738 29.4011 36.8445 29.441C37.3394 28.5531 37.8449 27.6707 38.3732 26.7965C39.679 24.6365 41.2433 22.5106 42.8939 20.5873C42.7444 20.4187 42.5845 20.2361 42.4107 20.074C42.3497 20.1755 42.2473 20.322 42.1879 20.4229C41.5507 21.5102 40.8357 22.6215 40.1106 23.6527C38.8245 25.4822 37.6215 27.3332 36.4836 29.2298L36.6934 29.355ZM35.9962 28.9247C36.3867 26.8792 35.7459 24.7387 34.6771 22.7081C34.6635 22.6808 34.6502 22.6497 34.6365 22.6237C33.9552 21.3253 32.4373 18.9458 31.9104 17.7428C31.5021 16.8092 31.2278 16.1794 31.2184 16.1558C31.3315 18.1287 31.8984 20.0117 32.7642 21.7518C32.8144 21.8672 32.8654 21.9781 32.9172 22.0786C33.5985 23.3936 34.622 25.2092 35.1119 26.4722C35.406 27.2991 35.6298 28.0748 35.7443 28.759L35.9962 28.9247ZM37.2943 7.0641C38.0278 7.46718 38.8194 7.90722 39.6077 8.33753C39.6381 7.87155 39.5545 7.44902 39.251 7.16852C39.1141 7.04205 38.8323 6.6727 38.7597 6.70286C38.3897 6.43566 37.8686 6.18759 37.1399 5.65546M35.2951 8.7059C36.3734 9.49648 37.5985 10.267 38.7681 10.9855C38.857 10.7637 38.9442 10.5445 39.0275 10.3295C38.0417 9.43552 37.029 8.65013 36.124 7.94029" fill="white"/>
</g>
</g>
</g>
</g>
<g id="Group_21">
<path id="Vector_19" d="M26.8819 2.11533H28.0359L27.9925 0.945679C27.5194 1.17689 27.043 1.4723 26.5592 1.79139L26.8819 2.11533Z" fill="white"/>
</g>
<g id="Group_22">
<path id="Vector_20" d="M36.1428 7.94259L33.8187 5.75017V3.18322C33.5544 2.98249 33.2931 2.78112 33.0382 2.58331V7.12218L34.9734 9.05777C35.3759 8.67707 35.765 8.29053 36.1428 7.94259Z" fill="white"/>
</g>
<g id="Group_23">
<path id="Vector_21" d="M37.1545 5.6538C36.992 5.83572 36.7586 5.95311 36.4956 5.95311C36.005 5.95311 35.6074 5.55555 35.6074 5.06525C35.6074 4.8989 35.6564 4.74519 35.7361 4.61256C35.3071 4.29607 34.8687 3.9705 34.4368 3.64752V5.48291L36.6227 7.52065C37.4026 6.87826 38.1384 6.51119 38.8511 6.88669C38.4844 6.62176 37.8763 6.18107 37.1545 5.6538Z" fill="white"/>
</g>
<g id="Group_24">
<path id="Vector_22" d="M32.4201 7.3777V2.10403C32.1302 1.88028 31.8523 1.66918 31.5883 1.47623V8.80418C31.9467 8.91865 32.2074 9.25005 32.2074 9.64599C32.2074 10.1366 31.8098 10.5342 31.3195 10.5342C30.8292 10.5342 30.4317 10.1366 30.4317 9.64599C30.4317 9.27989 30.6535 8.96599 30.9699 8.83044V1.0443C30.6638 0.842927 30.3888 0.687276 30.1505 0.590642L30.1469 6.48043L28.428 8.19973C28.5788 8.52725 28.5259 8.92578 28.2558 9.19558C27.9088 9.54255 27.3468 9.54255 26.9999 9.19558C26.6532 8.84893 26.6532 8.28664 26.9999 7.93999C27.2684 7.67149 27.6633 7.61636 27.9902 7.76358L29.5289 6.2249L29.5321 0.493036C29.2403 0.510871 28.9481 0.571186 28.6553 0.669441L28.654 2.73312H26.6257L26.0326 2.14067C25.5581 2.45814 25.075 2.77657 24.5818 3.05642L25.7868 4.26142H26.9901C27.116 3.92385 27.438 3.68259 27.8196 3.68259C28.3099 3.68259 28.7075 4.07983 28.7075 4.57013C28.7075 5.06076 28.3099 5.45832 27.8196 5.45832C27.438 5.45832 27.116 5.21706 26.9901 4.87949H25.5309L24.0104 3.35897C23.3096 3.69881 22.5858 3.92904 21.8306 3.92904C20.599 3.92904 19.3522 2.98703 18.1871 2.02588L16.0958 2.02361C15.97 2.36085 15.6474 2.60211 15.2663 2.60211C14.776 2.60211 14.3785 2.20455 14.3785 1.71458C14.3785 1.22427 14.776 0.826714 15.2663 0.826714C15.6474 0.826714 15.97 1.06797 16.0958 1.40522H17.4393C16.2687 0.441152 15.2093 -0.327377 14.3723 0.141199C13.0558 0.878598 13.6596 2.28789 14.4407 3.89305L15.0831 3.25099H17.9598L19.2559 4.54678H21.3562L22.2966 5.48685H24.6233L25.2297 6.09325C25.3425 6.04136 25.4664 6.01088 25.5983 6.01088C26.089 6.01088 26.4865 6.40844 26.4865 6.89907C26.4865 7.38937 26.089 7.78693 25.5983 7.78693C25.108 7.78693 24.7105 7.38937 24.7105 6.89907C24.7105 6.76709 24.7413 6.64289 24.7929 6.53037L24.3677 6.1046H22.0407L21.1 5.16485H18.9997L17.7039 3.86905H15.339L14.7277 4.48031C14.9703 4.98066 15.2099 5.49302 15.398 6.00472C15.4239 6.07541 15.4499 6.14773 15.4758 6.21939L15.9129 5.81437C15.8727 5.71287 15.8487 5.60294 15.8487 5.48685C15.8487 4.99655 16.246 4.59899 16.7369 4.59899C17.2269 4.59899 17.6245 4.99655 17.6245 5.48685C17.6245 5.97716 17.2269 6.37472 16.7369 6.37472C16.589 6.37472 16.4519 6.33548 16.3293 6.2716L15.6992 6.8501C15.8163 7.19027 15.9317 7.54599 16.0446 7.91696H16.8569L18.1446 6.62927H21.267L23.1177 8.47925C23.2438 8.41018 23.3868 8.36738 23.5408 8.36738C24.0311 8.36738 24.429 8.76494 24.429 9.25524C24.429 9.74587 24.0311 10.1434 23.5408 10.1434C23.0509 10.1434 22.6533 9.74587 22.6533 9.25524C22.6533 9.14629 22.6753 9.04349 22.7113 8.94686L21.0115 7.24701H18.4008L17.1127 8.53535H16.2242C16.3371 8.94167 16.4428 9.36939 16.5411 9.81624L18.1507 9.81007L18.6193 9.34182H20.0361L21.3701 10.6759C21.4823 10.624 21.6069 10.5935 21.7388 10.5935C22.2291 10.5935 22.6267 10.9911 22.6267 11.4814C22.6267 11.972 22.2291 12.3696 21.7388 12.3696C21.2482 12.3696 20.8507 11.972 20.8507 11.4814C20.8507 11.3494 20.8815 11.2252 20.9327 11.113L19.7799 9.95957H18.8755L18.4069 10.4285H16.6669C16.8871 11.5761 17.0466 12.8573 17.0965 14.3126C17.8774 14.5565 18.8671 14.7773 20.0604 14.8976V13.8035L19.2786 13.022C19.179 13.0606 19.072 13.0839 18.9588 13.0839C18.4682 13.0839 18.071 12.6864 18.071 12.1961C18.071 11.7055 18.4682 11.3079 18.9588 11.3079C19.4491 11.3079 19.8467 11.7055 19.8467 12.1961C19.8467 12.3462 19.8062 12.4857 19.7403 12.6095L20.6785 13.5477V14.9498C21.0883 14.9767 21.5161 14.9939 21.9704 14.9939C22.247 14.9939 22.5249 14.979 22.8034 14.9579V13.5052L25.3263 10.982H26.7991C26.925 10.6448 27.2473 10.4035 27.6286 10.4035C28.1189 10.4035 28.5165 10.8007 28.5165 11.291C28.5165 11.7817 28.1189 12.1792 27.6286 12.1792C27.2473 12.1792 26.925 11.938 26.7991 11.6004H25.5821L23.4212 13.761V14.8944C24.4948 14.7562 25.5705 14.4812 26.6062 14.119C30.0315 12.8725 32.2246 11.3092 33.9361 9.96605C33.975 9.93265 34.0142 9.8986 34.0499 9.86682C34.0525 9.86812 34.0551 9.86812 34.0574 9.86909C34.213 9.7436 34.3661 9.61097 34.5175 9.47607L32.4201 7.3777Z" fill="white"/>
</g>
<g id="Group_25">
<path id="Vector_23" d="M2.95788 26.5847L3.80262 25.74V22.6785C3.38236 22.7382 2.9741 22.7927 2.58951 22.8261V26.5847H2.95788Z" fill="white"/>
</g>
<g id="Group_26">
<path id="Vector_24" d="M3.33242 31.9389L3.80262 31.4687V27.9798L2.95788 27.1351H2.58951V29.8016C2.84147 30.6567 3.08078 31.4126 3.33242 31.9389Z" fill="white"/>
</g>
<g id="Group_27">
<path id="Vector_25" d="M5.58191 22.4688C5.16879 22.4979 4.75047 22.5475 4.3367 22.6043V25.7397L5.18176 26.5848H5.58191V22.4688Z" fill="white"/>
</g>
<g id="Group_28">
<path id="Vector_26" d="M9.24099 32.8636H8.87261V33.4807C9.2491 33.5073 9.62136 33.5479 9.9852 33.6079L9.24099 32.8636Z" fill="white"/>
</g>
<g id="Group_29">
<path id="Vector_27" d="M11.866 32.8636H11.4658L10.6208 33.7084V33.7392C11.0624 33.8527 11.4804 34.0142 11.866 34.2382V32.8636Z" fill="white"/>
</g>
<g id="Group_30">
<path id="Vector_28" d="M5.58194 32.8636H5.18179L4.92691 33.1185C5.13704 33.1759 5.3543 33.2252 5.58194 33.2609V32.8636Z" fill="white"/>
</g>
<g id="Group_31">
<path id="Vector_29" d="M8.4281 32.8636H6.02653V33.318C6.78565 33.3997 7.60671 33.4104 8.4281 33.4525V32.8636Z" fill="white"/>
</g>
<g id="Group_32">
<path id="Vector_30" d="M6.02653 27.1351H8.4281V32.3134H6.02653V27.1351Z" fill="white"/>
</g>
<g id="Group_33">
<path id="Vector_31" d="M5.58191 32.3134V27.1351H5.18176L4.3367 27.9798V31.4687L5.18176 32.3134H5.58191Z" fill="white"/>
</g>
<g id="Group_34">
<path id="Vector_32" d="M18.5944 25.4154V26.5847H20.0468C19.6152 26.2014 19.1369 25.81 18.5944 25.4154Z" fill="white"/>
</g>
<g id="Group_35">
<path id="Vector_33" d="M14.7115 40.5191V38.5926H14.1463C14.3234 39.2933 14.4952 39.9652 14.7115 40.5191Z" fill="white"/>
</g>
<g id="Group_36">
<path id="Vector_34" d="M10.6208 25.7397L11.4655 26.5844H11.866V22.8157C11.437 22.7369 11.0225 22.6734 10.6208 22.6208V25.7397Z" fill="white"/>
</g>
<g id="Group_37">
<path id="Vector_35" d="M11.866 32.3134V27.1351H11.4658L10.6208 27.9798V31.4687L11.4658 32.3134H11.866Z" fill="white"/>
</g>
<g id="Group_38">
<path id="Vector_36" d="M10.0857 22.5579C9.66646 22.5132 9.26306 22.4814 8.87231 22.4597V26.5847H9.24101L10.0857 25.74V22.5579Z" fill="white"/>
</g>
<g id="Group_39">
<path id="Vector_37" d="M10.0857 31.4687V27.9801L9.24101 27.1351H8.87231V32.3134H9.24101L10.0857 31.4687Z" fill="white"/>
</g>
<g id="Group_40">
<path id="Vector_38" d="M8.42826 22.4387C7.56115 22.4056 6.76404 22.4179 6.02665 22.4443L6.02669 26.5848L8.4281 26.5847L8.42826 22.4387Z" fill="white"/>
</g>
<g id="Group_41">
<path id="Vector_39" d="M18.1498 38.042V32.8636H17.7493L16.9046 33.7084V37.1972L17.7493 38.042H18.1498Z" fill="white"/>
</g>
<g id="Group_42">
<path id="Vector_40" d="M2.1449 27.1351H1.79501C1.86116 27.3481 1.92699 27.5608 1.99152 27.7713C2.04372 27.9415 2.09463 28.1111 2.1449 28.2804V27.1351Z" fill="white"/>
</g>
<g id="Group_43">
<path id="Vector_41" d="M2.1449 26.5848V22.854C1.2298 22.8848 0.499856 22.7233 0.167799 22.0485C0.436298 22.8686 1.03718 24.7124 1.62347 26.5848H2.1449Z" fill="white"/>
</g>
<g id="Group_44">
<path id="Vector_42" d="M14.7115 38.042V32.8636H12.3102V34.5359C13.2097 35.2727 13.6469 36.6635 14.0055 38.042H14.7115Z" fill="white"/>
</g>
<g id="Group_45">
<path id="Vector_43" d="M16.3695 39.4373L15.5248 38.5926H15.1561V41.3583C15.3834 41.658 15.6577 41.8532 16.0063 41.894C16.1361 41.9099 16.2564 41.9115 16.3695 41.9028V39.4373Z" fill="white"/>
</g>
<g id="Group_46">
<path id="Vector_44" d="M21.4402 29.9079C21.6549 29.5548 21.8845 29.1952 22.1322 28.8284C21.9331 28.5609 21.7016 28.2749 21.4402 27.9775V29.9079Z" fill="white"/>
</g>
<g id="Group_47">
<path id="Vector_45" d="M18.1498 38.5926H17.7493L16.9046 39.4373V41.7419C17.6569 41.3285 17.916 40.1715 18.1498 38.8553V38.5926Z" fill="white"/>
</g>
<g id="Group_48">
<path id="Vector_46" d="M20.9956 27.4953C20.8818 27.3763 20.7641 27.2567 20.6396 27.1354H18.5944V32.3137H20.1548C20.4002 31.7845 20.6781 31.2371 20.9956 30.6713V27.4953Z" fill="white"/>
</g>
<g id="Group_49">
<path id="Vector_47" d="M16.3695 37.1972V33.7087L15.5248 32.8636H15.1561V38.042H15.5248L16.3695 37.1972Z" fill="white"/>
</g>
<g id="Group_50">
<path id="Vector_48" d="M18.5941 32.864V36.6593C18.6038 36.6227 18.6129 36.5844 18.6232 36.5481C18.9349 35.4485 19.3191 34.2201 19.9074 32.864H18.5941Z" fill="white"/>
</g>
<g id="Group_51">
<path id="Vector_49" d="M12.3116 27.1351H14.7128V32.3134H12.3116V27.1351Z" fill="white"/>
</g>
<g id="Group_52">
<path id="Vector_50" d="M14.3247 23.3952C13.621 23.1935 12.9514 23.0327 12.3106 22.9026V26.5848H14.7115V23.5181C14.5828 23.4763 14.4541 23.4341 14.3247 23.3952Z" fill="white"/>
</g>
<g id="Group_53">
<path id="Vector_51" d="M16.3695 31.4687V27.9801L15.5248 27.1351H15.1561V32.3134H15.5248L16.3695 31.4687Z" fill="white"/>
</g>
<g id="Group_54">
<path id="Vector_52" d="M15.1561 26.5848H15.5248L16.3695 25.74V24.1508C15.9733 23.974 15.5679 23.8139 15.1561 23.6686V26.5848Z" fill="white"/>
</g>
<g id="Group_55">
<path id="Vector_53" d="M16.9043 27.9798V31.4683L17.749 32.3134H18.1495V27.1351H17.749L16.9043 27.9798Z" fill="white"/>
</g>
<g id="Group_56">
<path id="Vector_54" d="M17.7493 26.5848H18.1498V25.1103C17.7529 24.8519 17.3356 24.6174 16.9046 24.4034V25.74L17.7493 26.5848Z" fill="white"/>
</g>
</g>
</g>
</g>
</g>
</g>
</svg>
